<svg width="51" height="51" viewBox="0 0 51 51" fill="none" xmlns="http://www.w3.org/2000/svg">
<path d="M25.714 2.07409C25.6032 2.07488 25.4922 2.07671 25.381 2.07957C21.4643 2.18326 17.2621 3.67053 13.0508 7.10028L12.4504 7.58936L11.8794 7.06641C10.62 5.91313 9.85973 4.3139 9.32413 2.71189C8.43024 6.39544 7.86675 10.8186 8.40454 14.1195C10.204 14.2099 12.9277 13.9026 15.7458 13.3407C17.5246 12.986 19.3365 12.5313 21.0314 12.0386C19.6948 11.7486 18.4519 11.3531 17.232 10.8351L15.6295 10.1546L17.1143 9.24546C21.7329 6.41726 25.1791 5.19276 29.0908 5.70405C32.3884 6.13506 35.9994 7.7826 40.9509 10.4127C38.4235 6.79547 34.7509 3.96427 30.519 2.74336C28.9848 2.3008 27.376 2.06323 25.714 2.07409ZM34.4648 11.5547C29.8164 11.5547 29.8165 11.5547 29.8165 16.2031V34.8035C29.8165 35.7594 29.8172 36.5158 29.8577 37.1187C31.5231 36.647 33.2063 36.2409 34.9035 35.9011C37.3588 35.4116 39.7213 35.0819 41.6686 35.0634C42.3177 35.0572 42.9208 35.0857 43.4656 35.1543L44.0942 35.2332L44.2295 35.8521C44.4749 36.9742 44.5953 38.1877 44.6193 39.4439C48.4077 39.425 48.4102 39.1391 48.4102 34.7972V16.203C48.4102 11.5547 48.4102 11.5547 43.7618 11.5547C43.8987 11.8059 44.0308 12.0596 44.158 12.3157L45.4155 14.8593L42.9249 13.4999C41.6215 12.7884 40.4183 12.142 39.2939 11.5547H34.4648ZM6.38068 11.5563C2.59233 11.5752 2.58984 11.8611 2.58984 16.2031V34.8035C2.58984 39.4453 2.58984 39.4453 7.23821 39.4453C7.10133 39.1942 6.96923 38.9405 6.84197 38.6843L5.5845 36.1407L8.07513 37.5003C9.37852 38.2117 10.5817 38.8581 11.7061 39.4453H16.5352C21.1836 39.4453 21.1835 39.4453 21.1835 34.797V16.2031C21.1835 15.2442 21.1829 14.4858 21.1421 13.8818C19.4768 14.3533 17.7936 14.7593 16.0965 15.099C12.8228 15.7518 9.71381 16.12 7.53435 15.8459L6.90582 15.7669L6.77055 15.148C6.52511 14.0259 6.40468 12.8126 6.38068 11.5563ZM41.7041 36.8649C39.9566 36.8898 37.6374 37.1842 35.2543 37.6594C33.4754 38.014 31.6634 38.4688 29.9686 38.9615C31.3052 39.2514 32.5481 39.6469 33.768 40.165L35.3705 40.8455L33.8857 41.7547C29.2671 44.5828 25.8209 45.8073 21.9092 45.2961C18.6116 44.8651 15.0006 43.2174 10.0491 40.5874C12.5765 44.2047 16.2491 47.0359 20.481 48.2567C25.7177 49.7674 31.8237 48.8885 37.9492 43.8998L38.5496 43.4107L39.1206 43.9336C40.38 45.087 41.1403 46.6861 41.6759 48.2883C42.5698 44.6046 43.1333 40.1814 42.5955 36.8806C42.3177 36.8666 42.0229 36.8603 41.704 36.8649H41.7041Z" fill="white"/>
</svg>
